<svg xmlns="http://www.w3.org/2000/svg" width="13.501" height="13.498" viewBox="0 0 13.501 13.498"><defs><style>.a{fill:#777;}</style></defs><path class="a" d="M6.747,5.526a3.461,3.461,0,1,0,3.461,3.461A3.455,3.455,0,0,0,6.747,5.526Zm0,5.711A2.25,2.25,0,1,1,9,8.987a2.254,2.254,0,0,1-2.25,2.25Zm4.41-5.852a.807.807,0,1,1-.807-.807A.805.805,0,0,1,11.156,5.384Zm2.292.819a4,4,0,0,0-1.09-2.828A4.021,4.021,0,0,0,9.53,2.285c-1.114-.063-4.455-.063-5.569,0A4.015,4.015,0,0,0,1.133,3.372,4.008,4.008,0,0,0,.042,6.2c-.063,1.114-.063,4.455,0,5.569A4,4,0,0,0,1.133,14.6a4.026,4.026,0,0,0,2.828,1.09c1.114.063,4.455.063,5.569,0a4,4,0,0,0,2.828-1.09,4.021,4.021,0,0,0,1.09-2.828c.063-1.114.063-4.452,0-5.566Zm-1.44,6.762a2.278,2.278,0,0,1-1.283,1.283,14.876,14.876,0,0,1-3.979.271,14.992,14.992,0,0,1-3.979-.271,2.278,2.278,0,0,1-1.283-1.283,14.876,14.876,0,0,1-.271-3.979,14.992,14.992,0,0,1,.271-3.979A2.278,2.278,0,0,1,2.768,3.725a14.876,14.876,0,0,1,3.979-.271,14.992,14.992,0,0,1,3.979.271,2.278,2.278,0,0,1,1.283,1.283,14.876,14.876,0,0,1,.271,3.979A14.868,14.868,0,0,1,12.009,12.966Z" transform="translate(0.005 -2.238)"/></svg>