<svg xmlns="http://www.w3.org/2000/svg" width="14.94" height="14.566" viewBox="0 0 14.94 14.566"><defs><style>.a{fill:#777;}</style></defs><path class="a" d="M5,12.291c0,.06-.069.108-.157.108s-.169-.039-.169-.108.069-.108.157-.108S5,12.222,5,12.291Zm-.937-.136c-.021.06.039.13.13.148a.141.141,0,0,0,.187-.06c.018-.06-.039-.13-.13-.157A.155.155,0,0,0,4.06,12.156ZM5.391,12.1c-.087.021-.148.078-.139.148s.087.1.178.078.148-.078.139-.139S5.479,12.1,5.391,12.1ZM7.373.563A7.222,7.222,0,0,0,0,7.912a7.551,7.551,0,0,0,5.105,7.2c.386.069.521-.169.521-.364s-.009-1.217-.009-1.849c0,0-2.108.452-2.551-.9,0,0-.343-.876-.837-1.1,0,0-.69-.473.048-.464a1.59,1.59,0,0,1,1.163.777,1.592,1.592,0,0,0,2.2.63,1.674,1.674,0,0,1,.482-1.015C4.434,10.644,2.735,10.4,2.735,7.5a2.283,2.283,0,0,1,.711-1.774,2.846,2.846,0,0,1,.078-2.045c.63-.2,2.078.813,2.078.813a7.116,7.116,0,0,1,3.783,0s1.449-1.012,2.078-.813a2.844,2.844,0,0,1,.078,2.045A2.341,2.341,0,0,1,12.319,7.5c0,2.907-1.774,3.139-3.458,3.328a1.781,1.781,0,0,1,.512,1.4c0,1.015-.009,2.271-.009,2.518,0,.2.139.434.521.364a7.482,7.482,0,0,0,5.054-7.2A7.385,7.385,0,0,0,7.373.563ZM2.928,10.951c-.039.03-.03.1.021.157s.117.069.157.03.03-.1-.021-.157S2.967,10.912,2.928,10.951ZM2.6,10.707c-.021.039.009.087.069.117A.09.09,0,0,0,2.8,10.8c.021-.039-.009-.087-.069-.117S2.623,10.677,2.6,10.707Zm.976,1.072c-.048.039-.03.13.039.187s.157.078.2.03.021-.13-.039-.187S3.617,11.731,3.578,11.779Zm-.343-.443c-.048.03-.048.108,0,.178s.13.1.169.069a.137.137,0,0,0,0-.187C3.361,11.327,3.283,11.3,3.235,11.336Z" transform="translate(0 -0.563)"/></svg>